<?xml version="1.0" standalone="no"?>
<!DOCTYPE svg PUBLIC "-//W3C//DTD SVG 20010904//EN"
 "http://www.w3.org/TR/2001/REC-SVG-20010904/DTD/svg10.dtd">
<svg version="1.0" xmlns="http://www.w3.org/2000/svg"
 width="256.000000pt" height="256.000000pt" viewBox="0 0 256.000000 256.000000"
 preserveAspectRatio="xMidYMid meet">

<g transform="translate(0.000000,256.000000) scale(0.100000,-0.100000)"
fill="#000000" stroke="none">
<path d="M1013 723 c9 -2 23 -2 30 0 6 3 -1 5 -18 5 -16 0 -22 -2 -12 -5z"/>
<path d="M950 695 c-13 -14 -22 -26 -19 -28 2 -1 16 10 31 25 15 15 23 28 19
28 -4 0 -18 -11 -31 -25z"/>
<path d="M1121 644 c0 -11 3 -14 6 -6 3 7 2 16 -1 19 -3 4 -6 -2 -5 -13z"/>
<path d="M505 604 c-119 -35 -123 -41 -100 -121 19 -66 30 -68 22 -4 -8 65 7
84 78 100 50 11 59 11 75 -4 27 -25 47 -119 30 -140 -21 -25 4 -45 27 -22 15
15 16 24 5 73 -16 77 -42 129 -67 131 -11 1 -42 -5 -70 -13z"/>
<path d="M823 612 c-13 -2 -23 -8 -23 -13 0 -9 37 -3 49 7 8 7 -4 10 -26 6z"/>
<path d="M1120 620 c-1 -3 -4 -15 -5 -28 -1 -15 1 -20 7 -14 6 6 8 18 5 28 -3
11 -6 17 -7 14z"/>
<path d="M868 594 c-5 -4 -8 -15 -8 -25 0 -10 -9 -21 -21 -24 -15 -5 -19 -12
-15 -28 3 -12 6 -28 6 -34 0 -7 10 -13 23 -13 13 0 30 6 39 13 14 11 14 17 -1
65 -9 30 -19 50 -23 46z"/>
<path d="M674 532 c3 -9 10 -36 16 -59 6 -24 13 -43 16 -43 3 0 24 5 48 11
l43 11 -13 36 c-8 24 -18 36 -28 34 -9 -2 -16 3 -16 10 0 10 -2 10 -8 1 -6
-10 -14 -9 -35 2 -26 13 -28 13 -23 -3z"/>
<path d="M1018 523 c6 -2 18 -2 25 0 6 3 1 5 -13 5 -14 0 -19 -2 -12 -5z"/>
</g>
</svg>
